<svg data-v-0dd9719b="" version="1.0" xmlns="http://www.w3.org/2000/svg" xmlns:xlink="http://www.w3.org/1999/xlink" width="100%" height="100%" viewBox="0 0 340.000000 250.000000" preserveAspectRatio="xMidYMid meet" color-interpolation-filters="sRGB" style="margin: auto;"> <rect data-v-0dd9719b="" x="0" y="0" width="100%" height="100%" fill="#fff" fill-opacity="1" class="background"></rect> <rect data-v-0dd9719b="" x="0" y="0" width="100%" height="100%" fill="url(#watermark)" fill-opacity="1" class="watermarklayer"></rect> <g data-v-0dd9719b="" fill="#333" class="icon-text-wrapper icon-svg-group iconsvg" transform="translate(80.78999328613281,78.82048416137695)"><g class="iconsvg-imagesvg" transform="translate(59.21000671386719,0)"><g><rect fill="#333" fill-opacity="0" stroke-width="2" x="0" y="0" width="60" height="57.999033349444176" class="image-rect"></rect> <svg x="0" y="0" width="60" height="57.999033349444176" filtersec="colorsb8766267775" class="image-svg-svg primary" style="overflow: visible;"><svg xmlns="http://www.w3.org/2000/svg" viewBox="0 0 103.44999694824219 100"><path fill="#333" d="M103.45 100L85.87 64.43l-13.08 6.56-.04.01 8.93 18.07L103.45 100zM46.89 47.57l7.14-14.45 7.15 14.45h16.36L54.03 0 30.52 47.57H46.89z"></path><path fill="#00a199" d="M79.86 52.27H0L16.2 72.5l76.39-20.23H79.86zM16.39 76.19L4.62 100l21.76-10.93 44.31-22.25 13.11-6.58 8.03-4.04-75.44 19.99z"></path></svg></svg> <!----></g></g> <g transform="translate(0,64.9990348815918)"><g data-gra="path-name" fill-rule="" class="tp-name iconsvg-namesvg"><g transform="scale(1)"><g><path d="M18.12 0L24.95 0 16.79-22.37 8.12-22.37-0.1 0 6.61 0 8.19-4.71 16.57-4.71ZM9.9-9.86L12.22-16.86 12.6-16.86 14.89-9.86ZM47.42-11.19C47.42-20.37 43.55-22.69 36.88-22.69 30.24-22.69 26.34-20.37 26.34-11.19 26.34-2.16 30.08 0.23 36.46 0.32L39 4.67 46.55 4.67 42.49-0.58C45.68-1.87 47.42-5.03 47.42-11.19ZM33.11-11.19C33.11-16.05 33.81-17.5 36.88-17.5 39.94-17.5 40.68-16.05 40.68-11.19 40.68-6.38 39.94-4.96 36.88-4.96 33.81-4.96 33.11-6.38 33.11-11.19ZM61.05 0.32C67.34 0.32 71.14-1.87 71.14-7.58L71.14-22.37 64.76-22.37 64.76-8.03C64.76-6.83 64.24-5.16 61.05-5.16 57.96-5.16 57.41-6.58 57.41-8.03L57.41-22.37 51-22.37 51-7.58C51-1.29 54.77 0.32 61.05 0.32ZM91.32 0L98.16 0 90-22.37 81.33-22.37 73.11 0 79.81 0 81.39-4.71 89.77-4.71ZM83.1-9.86L85.42-16.86 85.81-16.86 88.1-9.86ZM100.12 0L106.54 0 106.54-6.09 108.83-6.09C115.53-6.09 118.08-8.12 118.08-14.41 118.08-20.18 115.88-22.37 108.83-22.37L100.12-22.37ZM106.54-11.19L106.54-17.44 107.89-17.44C110.5-17.44 111.53-16.73 111.53-14.25 111.53-11.89 110.57-11.19 107.89-11.19ZM127.84-5.51L127.84-22.37 121.43-22.37 121.43 0 136.13 0 136.13-5.51ZM148.93 0.32C155.21 0.32 159.02-1.87 159.02-7.58L159.02-22.37 152.63-22.37 152.63-8.03C152.63-6.83 152.12-5.16 148.93-5.16 145.83-5.16 145.28-6.58 145.28-8.03L145.28-22.37 138.87-22.37 138.87-7.58C138.87-1.29 142.64 0.32 148.93 0.32ZM169.23 0.32C176.16 0.32 178.32-2.29 178.32-6.74 178.32-10.8 177.65-12.57 172.07-14.02 169.3-14.73 168.81-14.96 168.81-15.99 168.81-17.05 169.62-17.54 171.68-17.54 173.46-17.54 176.26-17.12 177.2-16.76L177.2-21.89C175.94-22.31 174.2-22.69 171.39-22.69 166.04-22.69 162.63-21.02 162.63-15.73 162.63-11.77 163.79-10.22 168.69-9.09 171.49-8.41 171.91-7.87 171.91-6.93 171.91-5.54 171.55-5.09 168.88-5.09 166.88-5.09 164.27-5.51 162.79-5.93L162.79-0.42C164.37-0.03 166.75 0.32 169.23 0.32Z" transform="translate(0.10000000149011612, 22.69000244140625)"></path></g> <!----> <!----> <!----> <!----> <!----> <!----> <!----></g></g> <!----></g></g><defs v-gra="od"></defs></svg>